<svg width="124" height="124" viewBox="0 0 124 124" fill="none" xmlns="http://www.w3.org/2000/svg">
<path d="M61.6742 19.4771C50.9953 19.4771 42.3385 29.5841 42.3385 42.0518C42.3385 50.6985 46.5024 58.2082 52.6168 62L45.5264 65.2861L26.6578 74.0372C24.835 74.9487 23.9253 76.4942 23.9253 78.6817V99.4622C24.0752 102.06 25.6341 104.482 28.1615 104.523H95.2889C98.1744 104.272 99.6341 101.948 99.6625 99.4622V78.6817C99.6625 76.4942 98.7528 74.9487 96.9301 74.0372L78.7446 65.2861L71.1871 61.7056C77.0506 57.8284 81.01 50.4811 81.01 42.0519C81.0099 29.5841 72.353 19.4771 61.6742 19.4771ZM30.4857 27.4156C25.8902 27.5901 22.2481 29.5786 19.481 32.7472C16.4203 36.562 14.9282 41.0913 14.8993 45.5971C15.0873 52.2598 18.0685 58.5673 23.3757 61.8665L2.18684 71.713C0.7285 72.2598 0 73.5357 0 75.5409V92.2187C0.113873 94.4305 1.26232 96.2895 3.41568 96.3213H17.4984V78.6817C17.7314 73.9657 19.946 70.1537 23.9253 68.2935L38.0041 61.5958C39.0978 60.9577 40.1463 60.0904 41.1489 58.9967C35.344 50.0402 34.5379 39.3126 38.279 29.8773C35.8458 28.3881 33.1113 27.4312 30.4857 27.4156ZM93.3729 27.4156C90.3677 27.4785 87.5904 28.5852 85.3089 30.1481C88.948 39.6689 87.9442 50.4031 82.5724 58.7218C83.7573 60.0889 84.9908 61.1375 86.2669 61.8667L99.8 68.2935C103.923 70.5545 106.049 74.4003 106.089 78.6818V96.3215H120.58C122.964 96.1158 123.979 94.2149 124 92.2188V75.541C124 73.7181 123.271 72.4423 121.813 71.713L100.895 61.7292C106.32 57.7293 109.044 51.7348 109.097 45.5971C108.952 40.7392 107.469 36.2285 104.515 32.7472C101.429 29.3993 97.601 27.451 93.3729 27.4156Z" fill="black"/>
</svg>
