<svg width="32" height="32" viewBox="0 0 32 32" fill="none" xmlns="http://www.w3.org/2000/svg">
<path d="M16 2C19.713 2 23.274 3.475 25.8995 6.1005C28.525 8.72601 30 12.287 30 16C30 19.713 28.525 23.274 25.8995 25.8995C23.274 28.525 19.713 30 16 30C12.287 30 8.72601 28.525 6.1005 25.8995C3.475 23.274 2 19.713 2 16C2 12.287 3.475 8.72601 6.1005 6.1005C8.72601 3.475 12.287 2 16 2V2ZM9 16C9 16.3183 9.12643 16.6235 9.35147 16.8485C9.57652 17.0736 9.88174 17.2 10.2 17.2H21.8C22.1183 17.2 22.4235 17.0736 22.6485 16.8485C22.8736 16.6235 23 16.3183 23 16C23 15.6817 22.8736 15.3765 22.6485 15.1515C22.4235 14.9264 22.1183 14.8 21.8 14.8H10.2C10.0424 14.8 9.88637 14.831 9.74078 14.8913C9.59519 14.9517 9.4629 15.04 9.35147 15.1515C9.24004 15.2629 9.15165 15.3952 9.09134 15.5408C9.03104 15.6864 9 15.8424 9 16V16Z" fill="#ED5858"/>
</svg>
