<svg width="16" height="16" viewBox="0 0 16 16" fill="none" xmlns="http://www.w3.org/2000/svg">
<path d="M8 0.125C10.0886 0.125 12.0916 0.954685 13.5685 2.43153C15.0453 3.90838 15.875 5.91142 15.875 8C15.875 10.0886 15.0453 12.0916 13.5685 13.5685C12.0916 15.0453 10.0886 15.875 8 15.875C5.91142 15.875 3.90838 15.0453 2.43153 13.5685C0.954685 12.0916 0.125 10.0886 0.125 8C0.125 5.91142 0.954685 3.90838 2.43153 2.43153C3.90838 0.954685 5.91142 0.125 8 0.125V0.125ZM4.0625 8C4.0625 8.17902 4.13362 8.35071 4.2602 8.4773C4.38679 8.60388 4.55848 8.675 4.7375 8.675H11.2625C11.4415 8.675 11.6132 8.60388 11.7398 8.4773C11.8664 8.35071 11.9375 8.17902 11.9375 8C11.9375 7.82098 11.8664 7.64929 11.7398 7.5227C11.6132 7.39612 11.4415 7.325 11.2625 7.325H4.7375C4.64886 7.325 4.56108 7.34246 4.47919 7.37638C4.39729 7.4103 4.32288 7.46002 4.2602 7.5227C4.19752 7.58538 4.1478 7.65979 4.11388 7.74169C4.07996 7.82358 4.0625 7.91136 4.0625 8V8Z" fill="#B7C0EE"/>
</svg>
