<svg width="127" height="122" viewBox="0 0 127 122" fill="none" xmlns="http://www.w3.org/2000/svg">
<path d="M49.1539 4.88C44.8848 4.88 41.1089 7.076 38.4664 9.9064C35.8287 12.7466 33.8993 16.2992 32.2141 20.13C29.6057 26.0348 27.7691 32.5935 26.1083 38.7374C20.7987 40.2795 16.2902 42.2022 12.6756 44.53C8.43576 47.253 4.88464 51.0302 4.88464 56.12C4.88464 60.551 7.58583 64.0842 10.9904 66.6413C13.887 68.8178 17.4576 70.6234 21.6779 72.1313C21.9124 73.2732 22.2934 74.4249 22.7428 75.4985C18.6251 77.8262 12.1041 82.3158 5.80295 90.8998L2.90149 95.0185L7.0241 97.9123L23.0456 108.892L19.9976 114.992L16.4807 122H110.51L106.993 114.983L103.95 108.883L119.986 97.9026L124.108 95.0087L121.212 90.8802C114.911 82.2914 108.385 77.8018 104.262 75.479C104.716 74.3956 105.093 73.2488 105.337 72.1118C109.552 70.6087 113.123 68.8031 116.019 66.6266C119.429 64.0695 122.125 60.5364 122.125 56.1054C122.125 51.0058 118.589 47.2384 114.344 44.5154C110.72 42.1876 106.216 40.2698 100.911 38.7179C99.0893 32.3593 97.0671 25.6883 94.5027 19.8128C92.8419 16.0308 91.0102 12.5416 88.3969 9.75024C85.7788 6.96864 82.0664 4.87024 77.8608 4.87024C75.0131 4.87024 72.8589 5.6608 70.5339 6.23664C68.2137 6.82224 65.8544 7.31024 63.5147 7.31024C58.8254 7.31024 54.8982 4.87024 49.1686 4.87024L49.1539 4.88ZM49.1539 14.64C50.1553 14.64 56.1682 17.08 63.5 17.08C67.1635 17.08 70.4362 16.348 72.9664 15.7136C75.4966 15.0694 77.4261 14.64 77.851 14.64C78.9745 14.64 79.8195 14.9914 81.2067 16.47C82.594 17.9486 84.2352 20.5838 85.6322 23.79C88.2943 29.8558 90.3214 38.1372 92.5098 45.75C92.5098 45.7402 92.7735 45.5158 92.0555 45.8964C90.8343 46.565 88.2846 47.4238 85.1828 47.8874C78.9794 48.8146 70.529 48.8 63.5098 48.8C56.5248 48.8 48.0549 48.7024 41.8368 47.7264C38.7301 47.253 36.2195 46.4186 34.969 45.75C34.588 45.545 34.4463 45.6231 34.3584 45.6036C34.3593 45.5499 34.3593 45.4962 34.3584 45.4426C34.378 45.3938 34.3584 45.345 34.3584 45.2962C34.4133 45.2453 34.4671 45.1933 34.5196 45.14C34.8833 44.4835 35.0906 43.7521 35.1253 43.0026C35.126 42.9538 35.126 42.9049 35.1253 42.8562C36.8838 36.3755 38.8376 29.5094 41.2311 24.0926C42.6623 20.8376 44.2107 18.178 45.6565 16.6262C47.1073 15.0646 48.0988 14.64 49.1735 14.64H49.1539ZM25.3365 49.2587C26.4405 51.5523 28.3845 53.3774 30.3774 54.4413C33.3326 56.0273 36.7568 56.769 40.4398 57.34C47.8155 58.4819 56.432 58.56 63.4951 58.56C70.5143 58.56 79.1552 58.5942 86.5505 57.4864C90.2335 56.9398 93.6332 56.2176 96.6128 54.5974C98.6155 53.5092 100.555 51.5816 101.644 49.2587C104.672 50.3323 107.203 51.4742 108.971 52.6113C111.804 54.4462 112.341 55.8077 112.341 56.1249C112.341 56.4177 112.082 57.3449 110.046 58.8772C108.009 60.4046 104.492 62.1663 99.9832 63.601C90.932 66.4802 77.9047 68.3346 63.4951 68.3346C49.0855 68.3346 36.0436 66.4802 27.0071 63.601C22.4888 62.1712 18.9719 60.4095 16.9448 58.8772C14.8981 57.34 14.6539 56.4128 14.6539 56.12C14.6539 55.7979 15.0349 54.5828 17.8582 52.7626C19.6313 51.6255 22.2543 50.3714 25.3414 49.2587H25.3365ZM38.0072 75.9523C39.6191 76.211 41.2115 76.6453 42.8918 76.86C43.5268 81.1398 46.8777 84.9218 52.2214 85.2536C56.3245 85.4976 60.9649 83.5554 61.3703 78.08C62.103 78.0898 62.7771 78.08 63.5098 78.08C64.2425 78.08 64.9263 78.0898 65.659 78.08C66.0596 83.5554 70.6999 85.4976 74.8128 85.2536C80.1468 84.9218 83.4879 81.1398 84.1229 76.86C85.8081 76.6453 87.3956 76.211 89.0075 75.9426L88.5434 78.9926C87.039 87.0104 83.4439 94.4622 78.9208 99.5862C74.4123 104.71 69.1027 107.443 63.5098 107.36C57.7655 107.277 52.5683 104.51 48.0939 99.43C43.6099 94.3548 40.0832 87.0494 38.4713 78.9926L38.017 75.9426L38.0072 75.9523ZM97.6923 82.9502C99.5094 84.0141 104.287 87.147 109.757 93.169L94.9472 103.383L91.4303 105.676L93.2669 109.483L94.6346 112.23H79.2285C81.8172 110.447 84.1734 108.349 86.2428 105.984C91.6159 99.8838 95.2305 91.8806 97.2332 83.2577C97.3993 83.1601 97.5263 83.0478 97.6923 82.9551V82.9502ZM29.1612 83.0966C29.3468 83.2138 29.5666 83.3016 29.7669 83.409C31.8575 91.9246 35.4574 99.8204 40.7573 105.823C42.9553 108.312 45.51 110.459 48.2307 112.23H32.3557L33.7332 109.483L35.5649 105.676L32.0675 103.383L17.2574 93.169C22.4351 87.4691 27.1389 84.3264 29.1758 83.1015L29.1612 83.0966Z" fill="black"/>
</svg>
