<svg width="26" height="25" viewBox="0 0 26 25" fill="none" xmlns="http://www.w3.org/2000/svg">
<path d="M10.063 1C9.18899 1 8.41599 1.45 7.87499 2.03C7.33499 2.612 6.93999 3.34 6.59499 4.125C6.06099 5.335 5.68499 6.679 5.34499 7.938C4.25799 8.254 3.33499 8.648 2.59499 9.125C1.72699 9.683 0.999994 10.457 0.999994 11.5C0.999994 12.408 1.55299 13.132 2.24999 13.656C2.84299 14.102 3.57399 14.472 4.43799 14.781C4.48599 15.015 4.56399 15.251 4.65599 15.471C3.81299 15.948 2.47799 16.868 1.18799 18.627L0.593994 19.471L1.43799 20.064L4.71799 22.314L4.09399 23.564L3.37399 25H22.624L21.904 23.562L21.281 22.312L24.564 20.062L25.408 19.469L24.815 18.623C23.525 16.863 22.189 15.943 21.345 15.467C21.438 15.245 21.515 15.01 21.565 14.777C22.428 14.469 23.159 14.099 23.752 13.653C24.45 13.129 25.002 12.405 25.002 11.497C25.002 10.452 24.278 9.68 23.409 9.122C22.667 8.645 21.745 8.252 20.659 7.934C20.286 6.631 19.872 5.264 19.347 4.06C19.007 3.285 18.632 2.57 18.097 1.998C17.561 1.428 16.801 0.998001 15.94 0.998001C15.357 0.998001 14.916 1.16 14.44 1.278C13.965 1.398 13.482 1.498 13.003 1.498C12.043 1.498 11.239 0.998001 10.066 0.998001L10.063 1ZM10.063 3C10.268 3 11.499 3.5 13 3.5C13.75 3.5 14.42 3.35 14.938 3.22C15.456 3.088 15.851 3 15.938 3C16.168 3 16.341 3.072 16.625 3.375C16.909 3.678 17.245 4.218 17.531 4.875C18.076 6.118 18.491 7.815 18.939 9.375C18.939 9.373 18.993 9.327 18.846 9.405C18.596 9.542 18.074 9.718 17.439 9.813C16.169 10.003 14.439 10 13.002 10C11.572 10 9.83799 9.98 8.56499 9.78C7.92899 9.683 7.41499 9.512 7.15899 9.375C7.08099 9.333 7.05199 9.349 7.03399 9.345C7.03418 9.334 7.03418 9.323 7.03399 9.312C7.03799 9.302 7.03399 9.292 7.03399 9.282C7.04524 9.27159 7.05624 9.26092 7.06699 9.25C7.14145 9.11548 7.18388 8.96559 7.19099 8.812C7.19114 8.802 7.19114 8.792 7.19099 8.782C7.55099 7.454 7.95099 6.047 8.44099 4.937C8.73399 4.27 9.05099 3.725 9.34699 3.407C9.64399 3.087 9.84699 3 10.067 3H10.063ZM5.18699 10.094C5.41299 10.564 5.81099 10.938 6.21899 11.156C6.82399 11.481 7.52499 11.633 8.27899 11.75C9.78899 11.984 11.553 12 12.999 12C14.436 12 16.205 12.007 17.719 11.78C18.473 11.668 19.169 11.52 19.779 11.188C20.189 10.965 20.586 10.57 20.809 10.094C21.429 10.314 21.947 10.548 22.309 10.781C22.889 11.157 22.999 11.436 22.999 11.501C22.999 11.561 22.946 11.751 22.529 12.065C22.112 12.378 21.392 12.739 20.469 13.033C18.616 13.623 15.949 14.003 12.999 14.003C10.049 14.003 7.37899 13.623 5.52899 13.033C4.60399 12.74 3.88399 12.379 3.46899 12.065C3.04999 11.75 2.99999 11.56 2.99999 11.5C2.99999 11.434 3.07799 11.185 3.65599 10.812C4.01899 10.579 4.55599 10.322 5.18799 10.094H5.18699ZM7.78099 15.564C8.11099 15.617 8.43699 15.706 8.78099 15.75C8.91099 16.627 9.59699 17.402 10.691 17.47C11.531 17.52 12.481 17.122 12.564 16C12.714 16.002 12.852 16 13.002 16C13.152 16 13.292 16.002 13.442 16C13.524 17.122 14.474 17.52 15.316 17.47C16.408 17.402 17.092 16.627 17.222 15.75C17.567 15.706 17.892 15.617 18.222 15.562L18.127 16.187C17.819 17.83 17.083 19.357 16.157 20.407C15.234 21.457 14.147 22.017 13.002 22C11.826 21.983 10.762 21.416 9.84599 20.375C8.92799 19.335 8.20599 17.838 7.87599 16.187L7.78299 15.562L7.78099 15.564ZM20 16.998C20.372 17.216 21.35 17.858 22.47 19.092L19.438 21.185L18.718 21.655L19.094 22.435L19.374 22.998H16.22C16.75 22.6326 17.2323 22.2026 17.656 21.718C18.756 20.468 19.496 18.828 19.906 17.061C19.94 17.041 19.966 17.018 20 16.999V16.998ZM5.96999 17.028C6.00799 17.052 6.05299 17.07 6.09399 17.092C6.52199 18.837 7.25899 20.455 8.34399 21.685C8.79399 22.195 9.31699 22.635 9.87399 22.998H6.62399L6.90599 22.435L7.28099 21.655L6.56499 21.185L3.53299 19.092C4.59299 17.924 5.55599 17.28 5.97299 17.029L5.96999 17.028Z" fill="black"/>
</svg>
